PathFileType	4	(X/Y/Z)	 normalP112.trc
DataRate	CameraRate	NumFrames	NumMarkers	Units	OrigDataRate	OrigDataStartFrame	OrigNumFrames
100	100	8	49	M	100	173	231
Frame#	Time	RM1D			RM5D			RM2B			LM1D			LM5D			LM2B			RCAL			LCAL			RLMAL			LLMAL			RSTL			LSTL			RFLE			LFLE			RHFIB			LHFIB			RTTUB			LTTUB			RSSH			LSSH			RTL			LTL			RTAP			RTAD			LTAP			LTAD			RTPP			RTPD			LTPP			LTPD			RPSIS			LPSIS			RASIS			LASIS			T10			T2			IJ			SA			RACR			LACR			RHLE			LHLE			RUSP			LUSP			RCB			LCB			IN			LHME			RHME			
		X1	Y1	Z1	X2	Y2	Z2	X3	Y3	Z3	X4	Y4	Z4	X5	Y5	Z5	X6	Y6	Z6	X7	Y7	Z7	X8	Y8	Z8	X9	Y9	Z9	X10	Y10	Z10	X11	Y11	Z11	X12	Y12	Z12	X13	Y13	Z13	X14	Y14	Z14	X15	Y15	Z15	X16	Y16	Z16	X17	Y17	Z17	X18	Y18	Z18	X19	Y19	Z19	X20	Y20	Z20	X21	Y21	Z21	X22	Y22	Z22	X23	Y23	Z23	X24	Y24	Z24	X25	Y25	Z25	X26	Y26	Z26	X27	Y27	Z27	X28	Y28	Z28	X29	Y29	Z29	X30	Y30	Z30	X31	Y31	Z31	X32	Y32	Z32	X33	Y33	Z33	X34	Y34	Z34	X35	Y35	Z35	X36	Y36	Z36	X37	Y37	Z37	X38	Y38	Z38	X39	Y39	Z39	X40	Y40	Z40	X41	Y41	Z41	X42	Y42	Z42	X43	Y43	Z43	X44	Y44	Z44	X45	Y45	Z45	X46	Y46	Z46	X47	Y47	Z47	X48	Y48	Z48	X49	Y49	Z49	
173	1.7300	0.880218	0.128107	-0.172374	0.842836	0.085463	-0.111182	0.827138	0.119469	-0.149406	0.341319	0.039442	-0.321088	0.287001	0.024211	-0.399128	0.290208	0.062092	-0.341868	0.704810	0.048411	-0.203356	0.138178	0.072106	-0.310551	0.727903	0.093084	-0.143085	0.195580	0.092545	-0.360621	0.753669	0.070164	-0.220505	0.187352	0.061422	-0.280928	0.615235	0.480668	-0.132651	0.360441	0.464492	-0.398406	0.614502	0.428422	-0.126572	0.323727	0.406322	-0.405219	0.677616	0.431193	-0.183890	0.369249	0.382781	-0.345545	0.693665	0.353466	-0.191873	0.291034	0.202199	-0.328510	0.534282	0.622312	-0.104876	0.414908	0.614604	-0.426902	0.609022	0.698332	-0.167945	0.625630	0.640558	-0.171974	0.503581	0.663936	-0.353703	0.481687	0.596788	-0.346224	0.437129	0.637402	-0.196363	0.469781	0.567826	-0.194314	0.326879	0.693160	-0.355016	0.305245	0.624870	-0.351431	0.348307	0.961030	-0.230302	0.351927	0.963978	-0.319263	0.513744	0.937129	-0.177792	0.510582	0.939832	-0.387491	0.344627	1.140404	-0.280009	0.381438	1.391643	-0.269944	0.529722	1.343574	-0.261160	0.543168	1.298597	-0.258125	0.430589	1.336883	-0.068438	0.478447	1.356799	-0.452877	0.342658	1.040621	-0.043421	0.552415	1.045361	-0.521613	0.396691	0.784675	-0.012096	0.754687	0.891617	-0.493200	0.561177	1.521450	-0.183061	0.568403	1.524177	-0.315445	0.417573	1.454259	-0.264132	0.531306	1.019661	-0.442112	0.361531	1.024155	-0.123803	
174	1.7400	0.892301	0.127210	-0.173127	0.854564	0.084515	-0.112118	0.838988	0.118523	-0.150382	0.341422	0.039339	-0.321132	0.286837	0.024184	-0.398543	0.291042	0.062653	-0.342205	0.717080	0.047580	-0.205124	0.139138	0.075423	-0.311234	0.739842	0.092027	-0.144578	0.196978	0.094858	-0.361199	0.765939	0.069489	-0.221964	0.188050	0.063858	-0.281467	0.625742	0.479326	-0.132689	0.368489	0.463955	-0.398067	0.625117	0.426880	-0.126983	0.331088	0.406334	-0.404918	0.688872	0.430372	-0.183717	0.376226	0.381948	-0.345418	0.705119	0.352579	-0.192311	0.294409	0.202692	-0.328633	0.546437	0.621603	-0.104799	0.423876	0.613944	-0.426355	0.620138	0.698106	-0.167004	0.637169	0.641107	-0.171383	0.513364	0.662488	-0.353828	0.491286	0.595480	-0.346451	0.448014	0.636265	-0.195188	0.480719	0.566639	-0.193268	0.336981	0.692733	-0.353653	0.314873	0.624592	-0.349863	0.359174	0.959492	-0.228954	0.362708	0.962648	-0.317961	0.524812	0.935792	-0.176947	0.521209	0.938689	-0.386887	0.355336	1.139075	-0.278728	0.391948	1.390336	-0.268346	0.540290	1.342338	-0.259818	0.553733	1.297307	-0.256911	0.441489	1.335328	-0.066962	0.488514	1.355600	-0.451370	0.353964	1.038863	-0.042176	0.564229	1.044734	-0.520387	0.407307	0.782902	-0.011279	0.768372	0.893743	-0.490567	0.571933	1.520164	-0.181553	0.579032	1.522976	-0.313919	0.428081	1.452982	-0.262488	0.543177	1.018757	-0.440807	0.375415	1.022453	-0.122660	
175	1.7500	0.901970	0.124275	-0.174317	0.863706	0.082123	-0.113274	0.848514	0.116173	-0.151649	0.341518	0.039253	-0.321172	0.287159	0.024408	-0.398474	0.291977	0.063247	-0.342547	0.726309	0.046136	-0.206741	0.140308	0.079069	-0.312092	0.749262	0.090334	-0.146048	0.198561	0.097418	-0.361897	0.775309	0.067683	-0.223439	0.188847	0.066620	-0.282137	0.636988	0.478370	-0.132779	0.377152	0.463393	-0.397737	0.636365	0.425759	-0.127389	0.339002	0.406271	-0.404672	0.700401	0.429398	-0.183867	0.383612	0.381050	-0.345159	0.716305	0.351234	-0.192811	0.298054	0.203280	-0.328822	0.558832	0.621367	-0.104947	0.433168	0.613287	-0.425846	0.631833	0.698816	-0.166106	0.649518	0.641945	-0.170663	0.523298	0.661120	-0.354008	0.501138	0.594251	-0.346791	0.459326	0.635145	-0.193925	0.492073	0.565697	-0.192765	0.347218	0.692216	-0.352251	0.324721	0.624190	-0.348343	0.370240	0.958166	-0.227648	0.373685	0.961478	-0.316612	0.536015	0.934718	-0.175969	0.532167	0.937652	-0.386042	0.366218	1.137812	-0.277351	0.402508	1.389126	-0.266664	0.550868	1.341129	-0.258433	0.564395	1.296170	-0.255571	0.452400	1.333892	-0.065419	0.498665	1.354578	-0.449775	0.365448	1.037255	-0.040824	0.575694	1.044240	-0.519057	0.418203	0.781223	-0.010351	0.781487	0.895617	-0.488015	0.582783	1.518907	-0.179951	0.589687	1.521802	-0.312323	0.438677	1.451766	-0.260711	0.554672	1.018054	-0.439446	0.387084	1.021019	-0.121249	
176	1.7600	0.909460	0.119614	-0.175811	0.870408	0.078389	-0.114613	0.855764	0.112472	-0.153081	0.341628	0.039145	-0.321207	0.287309	0.024692	-0.398523	0.293064	0.063921	-0.342953	0.732784	0.044092	-0.208267	0.141662	0.083133	-0.313035	0.756444	0.087987	-0.147501	0.200426	0.100258	-0.362679	0.782100	0.064983	-0.224938	0.190197	0.069942	-0.282381	0.648880	0.477623	-0.132935	0.386233	0.462841	-0.397455	0.648125	0.424919	-0.127732	0.347336	0.406247	-0.404358	0.712104	0.428228	-0.184228	0.391522	0.380130	-0.344857	0.727109	0.349471	-0.193405	0.301933	0.204083	-0.329034	0.571320	0.621287	-0.105071	0.442852	0.612699	-0.425296	0.644252	0.700100	-0.165160	0.662194	0.642220	-0.169671	0.533516	0.659827	-0.353968	0.511351	0.593110	-0.347032	0.470947	0.634109	-0.192824	0.503924	0.564916	-0.192865	0.357676	0.691706	-0.350856	0.335063	0.623806	-0.347012	0.381550	0.957065	-0.226418	0.384832	0.960476	-0.315324	0.547466	0.933940	-0.174908	0.543462	0.936756	-0.385009	0.377275	1.136676	-0.275916	0.413217	1.387965	-0.264901	0.561615	1.340130	-0.256935	0.575211	1.295163	-0.254152	0.463469	1.332577	-0.063774	0.508991	1.353768	-0.448038	0.377064	1.035737	-0.039479	0.586805	1.043761	-0.517687	0.429437	0.779667	-0.009307	0.794045	0.897327	-0.485546	0.593598	1.517705	-0.178226	0.600395	1.520737	-0.310579	0.449305	1.450701	-0.258877	0.565932	1.017402	-0.437974	0.396089	1.019645	-0.119934	
177	1.7700	0.914990	0.113595	-0.177503	0.874908	0.073681	-0.116083	0.861091	0.107816	-0.154645	0.341773	0.039057	-0.321234	0.287743	0.025095	-0.398371	0.294336	0.064665	-0.343394	0.736952	0.041662	-0.209762	0.143341	0.087569	-0.314074	0.761499	0.085112	-0.149038	0.202518	0.103395	-0.363534	0.786598	0.061598	-0.226526	0.191423	0.073416	-0.283218	0.659328	0.476264	-0.133718	0.395780	0.462299	-0.397152	0.660166	0.424107	-0.128021	0.355759	0.406220	-0.403952	0.723788	0.426899	-0.184473	0.399717	0.379217	-0.344638	0.737331	0.347228	-0.194121	0.306069	0.204974	-0.329348	0.582349	0.621072	-0.105573	0.452909	0.612145	-0.424614	0.657572	0.701532	-0.163908	0.675172	0.642281	-0.168370	0.543300	0.658070	-0.354235	0.522039	0.592115	-0.347084	0.482914	0.633163	-0.192144	0.516224	0.564317	-0.193361	0.368494	0.691150	-0.349468	0.345804	0.623414	-0.345720	0.393229	0.956151	-0.225187	0.396374	0.959640	-0.314010	0.559216	0.933348	-0.173723	0.555012	0.935920	-0.383814	0.388540	1.135529	-0.274407	0.424026	1.386865	-0.263019	0.572516	1.339249	-0.255282	0.586084	1.294279	-0.252607	0.474552	1.331376	-0.062029	0.519451	1.353115	-0.446298	0.388830	1.034346	-0.037967	0.597600	1.043345	-0.516312	0.440915	0.778221	-0.008140	0.806098	0.898733	-0.483185	0.604528	1.516614	-0.176422	0.611182	1.519786	-0.308737	0.460001	1.449822	-0.256944	0.576824	1.016866	-0.436570	0.407725	1.018346	-0.118521	
178	1.7800	0.918735	0.106867	-0.179211	0.877233	0.068614	-0.117722	0.864638	0.102439	-0.156299	0.342004	0.038956	-0.321289	0.288289	0.025618	-0.398190	0.295813	0.065457	-0.343898	0.739197	0.038889	-0.211267	0.145378	0.092480	-0.315086	0.764883	0.081804	-0.150524	0.205154	0.106761	-0.364194	0.789229	0.057743	-0.228157	0.193000	0.077240	-0.284107	0.671708	0.475600	-0.133703	0.405780	0.461845	-0.396916	0.672130	0.423225	-0.128275	0.364890	0.406324	-0.403767	0.735160	0.425594	-0.184633	0.405222	0.377015	-0.343653	0.746891	0.344529	-0.195003	0.310504	0.206038	-0.329758	0.595069	0.620879	-0.105440	0.463388	0.611600	-0.423768	0.671250	0.702512	-0.162324	0.688025	0.642610	-0.166652	0.554643	0.657262	-0.353643	0.533094	0.591186	-0.346908	0.495237	0.632367	-0.191980	0.528882	0.563746	-0.193899	0.379566	0.690681	-0.348121	0.356720	0.623137	-0.344462	0.405223	0.955477	-0.223882	0.408221	0.958941	-0.312620	0.571270	0.932798	-0.172457	0.566813	0.935133	-0.382509	0.399971	1.134458	-0.272740	0.434909	1.385821	-0.261064	0.583529	1.338511	-0.253515	0.597135	1.293508	-0.250959	0.485791	1.330237	-0.060197	0.530064	1.352594	-0.444393	0.400724	1.032990	-0.036420	0.608121	1.042897	-0.514958	0.452707	0.776850	-0.006888	0.817690	0.899867	-0.480898	0.615532	1.515666	-0.174502	0.621986	1.519004	-0.306802	0.470814	1.448962	-0.254918	0.587539	1.016313	-0.435111	0.419637	1.017119	-0.116973	
179	1.7900	0.920925	0.099623	-0.180941	0.878365	0.062854	-0.119386	0.866637	0.096706	-0.158087	0.342333	0.038950	-0.321294	0.288930	0.026287	-0.397974	0.297946	0.066625	-0.344424	0.739894	0.035860	-0.212735	0.147751	0.097767	-0.316194	0.766785	0.078203	-0.152070	0.207777	0.110542	-0.365117	0.790286	0.053533	-0.229736	0.194871	0.081432	-0.285041	0.683847	0.474725	-0.133611	0.416176	0.461443	-0.396735	0.683684	0.422134	-0.128533	0.374339	0.406549	-0.403660	0.746161	0.424243	-0.184741	0.414587	0.376338	-0.343779	0.755704	0.341469	-0.195913	0.315323	0.207331	-0.330321	0.608048	0.620650	-0.105225	0.474256	0.611078	-0.422832	0.685025	0.702792	-0.160297	0.700968	0.643074	-0.164945	0.566175	0.656597	-0.352837	0.544560	0.590331	-0.346601	0.507772	0.631838	-0.192081	0.541641	0.563249	-0.194433	0.390939	0.690397	-0.346750	0.367914	0.622934	-0.343133	0.417563	0.954943	-0.222436	0.420372	0.958376	-0.311135	0.583686	0.932275	-0.171174	0.578843	0.934386	-0.381142	0.411641	1.133375	-0.270943	0.445903	1.384784	-0.258955	0.594581	1.337808	-0.251673	0.608376	1.292866	-0.249161	0.497119	1.329186	-0.058205	0.540854	1.352085	-0.442431	0.412779	1.031677	-0.034794	0.618398	1.042454	-0.513632	0.464822	0.775618	-0.005511	0.828803	0.900680	-0.478772	0.626587	1.514862	-0.172445	0.632829	1.518370	-0.304797	0.481705	1.448120	-0.252771	0.597859	1.015775	-0.433753	0.430794	1.015983	-0.115669	
180	1.8000	0.921754	0.092015	-0.182753	0.878501	0.056673	-0.120997	0.867429	0.090756	-0.159701	0.342565	0.038819	-0.321347	0.289705	0.027085	-0.397579	0.299765	0.067579	-0.345002	0.739052	0.032407	-0.213580	0.150632	0.103524	-0.317255	0.767442	0.074495	-0.153508	0.210710	0.114617	-0.366072	0.789837	0.048786	-0.231337	0.197136	0.086063	-0.285997	0.695549	0.473581	-0.133417	0.426927	0.461094	-0.396638	0.694771	0.420689	-0.128644	0.384173	0.406817	-0.403669	0.756771	0.422235	-0.184795	0.424617	0.375721	-0.344094	0.763750	0.338132	-0.196711	0.320636	0.208804	-0.330952	0.621117	0.620163	-0.105057	0.485443	0.610651	-0.421904	0.698277	0.702456	-0.158442	0.714046	0.643205	-0.163500	0.577981	0.655993	-0.352047	0.556360	0.589563	-0.346146	0.520490	0.631426	-0.192228	0.554266	0.562747	-0.194836	0.402609	0.690179	-0.345303	0.379414	0.622716	-0.341763	0.430436	0.954432	-0.220665	0.432883	0.957854	-0.309457	0.596605	0.931739	-0.169886	0.591065	0.933679	-0.379768	0.423553	1.132361	-0.268952	0.456981	1.383781	-0.256734	0.605758	1.337210	-0.249721	0.619741	1.292307	-0.247263	0.508634	1.328162	-0.056110	0.551745	1.351653	-0.440351	0.424883	1.030469	-0.033090	0.628391	1.041957	-0.512353	0.477161	0.774411	-0.004067	0.839521	0.901170	-0.476757	0.637695	1.514083	-0.170302	0.643717	1.517855	-0.302651	0.492646	1.447315	-0.250491	0.608002	1.015178	-0.432420	0.442968	1.014874	-0.113980	
